<svg xmlns="http://www.w3.org/2000/svg" xmlns:xlink="http://www.w3.org/1999/xlink" version="1.0"
    viewBox="32.0 48.0 448.0 400.0" style="fill: rgb(0, 0, 0);">
    <linearGradient x1="61.298" x2="450.702" xmlns:xlink="http://www.w3.org/1999/xlink" y1="463.223" y2="73.82">
        <stop offset="0" style="stop-color: rgb(0, 0, 0);" />
        <stop offset=".533" style="stop-color: rgb(0, 0, 0);" />
        <stop offset="1" style="stop-color: rgb(0, 0, 0);" />
    </linearGradient>
    <path
        d="M136,227.26c5.644-3.032,11.002-6.572,16-10.588v127.334c-0.271,0.001-0.542-0.003-0.815,0.005 c-4.473-4.382-9.615-7.942-15.185-10.588V227.26z M182.987,368H184V193.188c-5.688,2.764-11.038,6.109-16,10.016v145.084 C175.321,352.538,180.822,359.613,182.987,368z M112,328c2.694,0,5.367,0.199,8,0.58v-94.352c-5.208,1.779-10.552,3.148-16,4.108 v90.244C106.614,328.205,109.283,328,112,328z M88,239.962c-0.931,0.024-1.858,0.038-2.78,0.038H72v104.862 c4.595-4.695,10.003-8.59,16-11.447V239.962z M216,370.752V184.355c-5.411,0.471-10.757,1.429-16,2.849V368 C205.609,368,210.992,368.976,216,370.752z M95.151,223.465c10.255-1.111,20.152-3.912,29.404-8.326 c6.957-3.308,13.448-7.507,19.303-12.484l11.196-9.548c10.062-8.57,21.651-15.124,34.384-19.426 c8.615-2.913,17.52-4.703,26.562-5.372v-23.98c-20.922,1.723-40.771,10.171-56.587,24.222l-12.193,10.854 C126.46,197.847,99.749,208,72,208v16h13.22C88.483,224,91.825,223.82,95.151,223.465z M200,384h-24c-4.418,0-8-3.582-8-8 c0-9.686-8.667-17.426-18.643-15.778c-2.727,0.449-5.488-0.537-7.312-2.611C134.439,348.961,123.489,344,112,344 c-22.056,0-40,17.944-40,40v8c0,4.418-3.582,8-8,8h-8c-13.233,0-24,10.767-24,24s10.767,24,24,24h144c17.645,0,32-14.355,32-32 S217.645,384,200,384z M62.221,122.67L48,87.118L33.779,122.67L48,144L62.221,122.67z M40,387.35c4.903-2.149,10.313-3.35,16-3.35 V184H40V387.35z M456,384c5.687,0,11.097,1.201,16,3.35V184h-16V384z M400,328c2.717,0,5.386,0.205,8,0.581v-90.245 c-5.449-0.96-10.792-2.329-16-4.108v94.352C394.633,328.199,397.306,328,400,328z M424,239.962v93.452 c5.997,2.857,11.405,6.752,16,11.447V240h-13.22C425.858,240,424.931,239.986,424,239.962z M296,168.308 c9.042,0.669,17.947,2.459,26.563,5.373c12.73,4.302,24.319,10.855,34.443,19.478l0.118,0.098l11.027,9.407 c5.844,4.968,12.335,9.167,19.283,12.471c9.261,4.418,19.158,7.219,29.426,8.332c3.313,0.354,6.655,0.534,9.919,0.534H440v-16 c-27.749,0-54.46-10.153-75.214-28.589l-12.205-10.866c-15.812-14.046-35.659-22.494-56.581-24.216V168.308z M329.013,368 c2.166-8.388,7.666-15.462,14.987-19.711V203.206c-4.978-3.917-10.325-7.258-16-10.017V368H329.013z M360,344.006 c0.271,0.001,0.542-0.003,0.815,0.004c4.473-4.382,9.615-7.942,15.185-10.588V227.26c-5.644-3.032-11.005-6.573-16-10.588V344.006z M478.222,122.67L464,87.118l-14.222,35.552L464,144L478.222,122.67z M456,400h-8c-4.418,0-8-3.582-8-8v-8c0-22.056-17.944-40-40-40 c-11.489,0-22.439,4.961-30.045,13.611c-1.825,2.075-4.595,3.06-7.313,2.61C352.706,358.583,344,366.312,344,376 c0,4.418-3.582,8-8,8h-24c-17.645,0-32,14.355-32,32s14.355,32,32,32h144c13.233,0,24-10.767,24-24S469.233,400,456,400z M296,370.752c5.008-1.776,10.391-2.752,16-2.752V187.204c-5.243-1.42-10.589-2.378-16-2.849V370.752z M56,160c0-4.418-3.582-8-8-8 s-8,3.582-8,8v8c0,4.418,3.582,8,8,8s8-3.582,8-8V160z M472,160c0-4.418-3.582-8-8-8s-8,3.582-8,8v8c0,4.418,3.582,8,8,8 s8-3.582,8-8V160z M224,64h-8v-8c0-4.418-3.582-8-8-8s-8,3.582-8,8v8h-8c-4.418,0-8,3.582-8,8s3.582,8,8,8h8v48c0,4.418,3.582,8,8,8 s8-3.582,8-8V80h8c4.418,0,8-3.582,8-8S228.418,64,224,64z M288,80h8v48c0,4.418,3.582,8,8,8s8-3.582,8-8V80h8c4.418,0,8-3.582,8-8 s-3.582-8-8-8h-8v-8c0-4.418-3.582-8-8-8s-8,3.582-8,8v8h-8c-4.418,0-8,3.582-8,8S283.582,80,288,80z"/>
</svg>